<?xml version="1.0" standalone="no"?>
<!DOCTYPE svg PUBLIC "-//W3C//DTD SVG 20010904//EN"
 "http://www.w3.org/TR/2001/REC-SVG-20010904/DTD/svg10.dtd">
<svg version="1.0" xmlns="http://www.w3.org/2000/svg"
 width="400.000000pt" height="600.000000pt" viewBox="0 0 400.000000 600.000000"
 preserveAspectRatio="xMidYMid meet">
<g transform="translate(0.000000,600.000000) scale(0.100000,-0.100000)"
fill="#000000" stroke="none">
<path d="M2074 5265 c-10 -8 -31 -15 -46 -15 -15 0 -39 -11 -55 -24 l-28 -24
-33 29 c-26 23 -42 29 -79 29 -43 0 -50 -4 -92 -50 -42 -46 -50 -50 -92 -50
-35 0 -52 -6 -73 -25 -14 -13 -26 -28 -26 -34 0 -5 -16 -15 -35 -21 -37 -12
-65 -51 -65 -90 0 -11 -8 -23 -17 -26 -41 -13 -61 -28 -72 -51 -14 -30 -14
-80 -1 -88 13 -8 13 -45 1 -45 -17 0 -51 -67 -51 -99 0 -18 5 -42 11 -54 7
-11 13 -42 13 -68 1 -29 9 -55 19 -67 12 -13 15 -28 11 -50 -6 -28 17 -113 36
-135 4 -4 5 -29 3 -55 -4 -33 1 -63 17 -102 12 -30 35 -91 51 -135 18 -47 43
-94 63 -115 18 -19 38 -55 45 -80 7 -25 23 -66 36 -91 l23 -46 -64 -64 c-36
-35 -89 -100 -118 -144 -29 -44 -88 -123 -130 -175 -42 -52 -76 -98 -76 -103
0 -11 81 -97 92 -97 6 0 47 25 91 55 l82 55 -65 -60 c-36 -34 -113 -98 -172
-142 -103 -78 -108 -83 -108 -119 0 -73 57 -321 148 -641 37 -131 38 -138 21
-154 -16 -14 -18 -14 -23 3 -103 343 -196 722 -196 803 0 43 13 56 118 126
l73 48 -52 52 c-41 42 -50 57 -46 76 4 12 56 83 116 157 61 74 109 136 108
138 -2 1 -64 -22 -138 -53 -74 -30 -195 -78 -269 -105 -74 -28 -162 -64 -194
-80 -33 -16 -67 -29 -76 -29 -26 0 -68 -37 -89 -79 -11 -20 -28 -76 -40 -123
-11 -48 -43 -140 -71 -206 -55 -132 -63 -192 -35 -272 23 -64 18 -71 -12 -17
-27 48 -27 48 -47 28 -13 -13 -22 -41 -27 -83 -5 -38 -28 -115 -58 -188 -27
-69 -61 -172 -76 -230 -17 -69 -43 -136 -75 -195 -45 -86 -48 -95 -56 -200 -4
-60 -8 -151 -8 -200 0 -79 3 -98 27 -147 31 -63 93 -126 158 -159 40 -20 52
-21 166 -15 264 15 385 48 612 167 63 33 115 58 117 56 6 -6 -150 -103 -201
-125 l-50 -21 0 -82 0 -82 55 -19 c124 -43 458 -118 524 -118 l29 0 -6 123
c-6 132 -27 227 -98 441 -21 65 -39 122 -39 128 0 5 10 8 21 6 18 -2 27 -22
55 -113 19 -60 45 -161 58 -224 21 -104 23 -111 30 -75 3 21 9 141 13 266 5
189 9 228 21 228 12 0 13 -27 7 -182 -7 -198 -32 -563 -40 -589 -7 -21 23 -26
250 -40 130 -8 230 -8 360 0 158 10 292 25 301 33 1 2 -6 44 -16 93 -80 392
-99 923 -60 1715 l19 375 -5 -600 c-5 -595 -1 -706 31 -1070 23 -253 25 -258
46 -150 19 101 57 235 131 465 148 462 254 867 283 1085 7 60 4 65 -90 130
-88 61 -234 176 -260 205 -11 12 20 -3 69 -34 50 -31 95 -56 102 -56 14 0 94
92 94 109 0 6 -26 47 -57 90 -32 44 -85 121 -117 171 -42 65 -82 111 -137 158
-42 37 -78 72 -78 79 -1 6 8 27 18 45 10 18 24 58 31 88 9 38 22 63 42 81 46
42 127 252 138 359 16 152 23 185 42 209 14 19 18 40 18 90 -1 36 2 90 5 119
7 50 5 54 -28 87 -27 27 -33 40 -29 62 7 38 -54 149 -90 164 -16 6 -28 17 -28
24 0 24 -36 58 -63 58 -20 0 -28 6 -36 29 -7 19 -22 34 -46 43 -19 9 -35 20
-35 25 0 5 -14 25 -30 44 -41 46 -113 63 -167 41 -34 -14 -38 -14 -58 5 -25
24 -73 26 -101 5z m81 -5 c3 -5 0 -10 -8 -10 -8 0 -30 -3 -48 -7 -31 -6 -33
-5 -20 10 15 19 66 23 76 7z m-295 -20 c0 -5 -13 -10 -30 -10 -19 0 -30 -5
-30 -14 0 -8 -9 -18 -21 -21 -29 -10 -37 3 -8 14 13 5 17 10 9 11 -12 0 -11 4
4 15 22 17 76 20 76 5z m45 -20 c3 -6 -1 -7 -9 -4 -18 7 -21 14 -7 14 6 0 13
-4 16 -10z m475 -15 c7 -9 10 -18 6 -22 -8 -8 -86 18 -86 29 0 14 67 9 80 -7z
m-368 -17 c-7 -7 -12 -8 -12 -2 0 14 12 26 19 19 2 -3 -1 -11 -7 -17z m-242
-12 c0 -3 -5 -8 -12 -12 -7 -4 -8 -3 -4 4 7 12 16 16 16 8z m-118 -38 c-6 -6
-27 -17 -47 -24 -31 -10 -34 -10 -23 3 13 17 45 31 68 32 11 1 11 -2 2 -11z
m828 -59 c0 -5 -4 -9 -10 -9 -5 0 -10 7 -10 16 0 8 5 12 10 9 6 -3 10 -10 10
-16z m91 -29 c10 -6 19 -16 19 -22 0 -9 -3 -9 -12 0 -7 7 -20 12 -29 12 -10 0
-21 5 -24 10 -8 13 21 13 46 0z m-1041 -39 c0 -10 -7 -24 -15 -31 -12 -10 -15
-10 -15 3 0 23 11 47 21 47 5 0 9 -8 9 -19z m1125 -51 c3 -5 1 -10 -4 -10 -6
0 -11 5 -11 10 0 6 2 10 4 10 3 0 8 -4 11 -10z m-1264 -77 c-4 -16 -6 -34 -4
-40 3 -7 0 -13 -6 -13 -15 0 -14 53 1 68 17 17 18 16 9 -15z m583 -152 c17
-11 51 -22 76 -25 25 -3 59 -8 75 -12 22 -4 40 1 68 20 67 46 116 28 137 -51
28 -102 61 -133 144 -133 l45 0 10 -52 c22 -121 22 -118 0 -118 -12 0 -39 15
-60 34 -51 43 -69 46 -181 29 -109 -18 -142 -32 -163 -73 -14 -28 -20 -30 -70
-30 -50 0 -56 2 -70 30 -19 38 -64 56 -168 71 -99 15 -126 9 -177 -37 -23 -21
-47 -34 -58 -32 -18 3 -19 6 -5 53 8 28 16 68 17 90 3 34 8 40 34 47 42 11 82
61 82 103 0 44 30 65 91 65 32 0 54 6 70 20 30 25 63 25 103 1z m185 3 c40 -8
30 -24 -15 -24 -24 0 -34 5 -34 15 0 17 4 18 49 9z m-102 -11 c-4 -3 -10 -3
-14 0 -3 4 0 7 7 7 7 0 10 -3 7 -7z m-726 -49 c-9 -28 -9 -29 -10 -3 -1 14 2
29 6 32 11 12 13 2 4 -29z m345 -50 c-4 -9 -9 -15 -11 -12 -3 3 -3 13 1 22 4
9 9 15 11 12 3 -3 3 -13 -1 -22z m768 -63 c-2 -3 -12 3 -22 13 -16 17 -16 18
5 5 12 -7 20 -15 17 -18z m94 -217 c38 -6 42 -9 42 -34 0 -15 -6 -33 -14 -39
-8 -7 -22 -43 -31 -82 -28 -115 -75 -149 -201 -149 -121 0 -156 24 -214 143
-29 59 -40 73 -61 75 -31 4 -39 -6 -69 -82 -44 -110 -89 -139 -211 -140 -76 0
-148 24 -168 56 -8 13 -23 50 -33 83 -14 46 -17 51 -13 20 4 -22 16 -60 28
-85 31 -64 77 -85 187 -84 96 0 153 22 185 70 11 17 20 23 24 15 4 -6 13 16
19 48 24 117 63 107 109 -30 22 -64 32 -85 32 -65 l1 29 23 -21 c35 -33 76
-44 159 -44 135 0 193 44 213 160 8 47 25 57 25 14 0 -62 -53 -289 -70 -302
-4 -3 -10 -18 -14 -33 -4 -15 -11 -25 -16 -22 -6 3 -10 -1 -10 -9 0 -9 -4 -16
-9 -16 -5 0 -11 -9 -14 -21 -3 -12 -10 -18 -16 -14 -6 3 -11 1 -11 -5 0 -6 -9
-20 -20 -32 -11 -12 -20 -28 -20 -37 0 -25 -14 -2 -30 52 -16 52 -48 82 -99
92 -18 3 -81 44 -81 52 0 2 9 12 20 23 21 21 24 43 10 75 -7 16 -9 13 -7 -15
2 -33 0 -35 -30 -35 -17 -1 -40 -8 -51 -18 -25 -23 -54 -22 -85 3 -18 14 -34
19 -51 14 -23 -6 -26 -3 -26 22 0 23 -2 26 -10 14 -14 -21 -13 -25 15 -58 l24
-29 -27 -19 c-15 -11 -49 -28 -75 -38 -61 -23 -103 -80 -94 -126 8 -36 -10
-41 -19 -5 -3 14 -11 25 -18 25 -19 0 -86 85 -86 109 0 5 -10 20 -22 34 -36
41 -83 243 -75 324 4 38 2 55 -9 64 -22 18 -17 56 9 63 12 4 78 9 147 12 98 5
141 2 200 -11 124 -28 168 -29 271 -6 52 11 110 23 129 25 39 4 171 -1 238
-10z m160 -89 c4 -44 -39 -170 -71 -212 -12 -15 -16 -23 -8 -19 10 7 12 3 6
-15 -10 -35 -38 -82 -51 -86 -20 -7 5 109 28 131 18 16 20 27 15 77 -4 47 -2
61 13 74 16 15 18 14 24 -17 8 -38 19 -26 30 34 8 45 -4 54 -38 27 -21 -16
-26 -17 -26 -5 0 17 49 58 64 53 6 -2 12 -21 14 -42z m-1226 8 c26 -23 22 -35
-7 -21 -14 6 -28 9 -31 5 -3 -3 2 -32 12 -63 l18 -58 8 33 c7 26 12 30 23 21
10 -8 12 -25 8 -61 -5 -42 -3 -53 16 -73 16 -17 24 -41 27 -82 l6 -59 -20 24
c-10 13 -24 40 -31 60 -7 20 -28 75 -47 122 -51 131 -43 207 18 152z m611
-490 c-7 -2 -21 -2 -30 0 -10 3 -4 5 12 5 17 0 24 -2 18 -5z m167 -56 c11 -9
20 -25 20 -35 0 -19 -40 -73 -40 -56 -1 5 -7 -2 -15 -16 -8 -14 -14 -21 -15
-17 0 4 -9 3 -19 -3 -27 -14 -36 4 -16 33 29 45 15 52 -103 51 -94 0 -107 -3
-110 -18 -2 -10 4 -26 13 -36 29 -32 -7 -57 -37 -27 -7 8 -23 19 -35 25 -26
14 -36 52 -23 86 11 29 25 31 228 31 110 -1 135 -3 152 -18z m-556 -159 c42
-138 131 -264 251 -356 l30 -23 -35 5 c-25 5 -46 19 -76 53 -41 46 -71 53 -61
12 6 -24 2 -24 -32 1 -42 29 -81 85 -102 147 -17 47 -19 70 -13 149 4 52 8 94
10 94 1 0 14 -37 28 -82z m765 -63 c1 -74 -11 -118 -47 -175 -32 -51 -113
-113 -119 -92 -7 19 -23 14 -60 -18 -23 -20 -44 -30 -66 -30 l-32 0 45 29
c102 64 205 204 247 338 15 48 19 53 24 32 4 -13 7 -51 8 -84z m-654 -25 c27
-27 54 -50 61 -50 6 0 19 -9 29 -20 10 -11 37 -25 59 -31 48 -13 207 -12 220
2 6 5 17 9 25 9 20 0 86 46 124 84 49 49 42 19 -14 -65 -38 -57 -77 -100 -132
-143 -120 -97 -114 -96 -187 -46 -89 61 -137 106 -177 169 -40 63 -76 141 -65
141 4 0 30 -22 57 -50z m-178 -342 c-2 -13 -4 -5 -4 17 -1 22 1 32 4 23 2 -10
2 -28 0 -40z m308 -53 c139 -29 278 -12 400 50 45 22 61 27 45 14 -69 -57
-206 -99 -319 -99 -109 1 -280 55 -319 102 -6 8 19 -1 56 -19 37 -18 99 -40
137 -48z m-1134 -102 c11 -68 35 -200 55 -294 35 -173 40 -228 11 -122 -45
161 -99 475 -96 556 2 37 0 48 30 -140z m907 61 c134 -69 134 -70 162 -124 36
-70 81 -220 65 -220 -7 0 -17 6 -23 13 -12 15 -77 208 -76 223 1 6 -4 11 -10
10 -6 0 -66 27 -133 62 -88 46 -120 67 -116 78 3 7 10 14 15 14 5 0 58 -25
116 -56z m-69 -344 c6 -212 5 -297 -3 -302 -15 -10 -23 81 -25 272 -1 147 10
372 16 340 2 -8 7 -148 12 -310z m691 94 c36 -13 59 -27 68 -44 19 -35 9 -232
-24 -462 -19 -131 -28 -251 -33 -422 l-7 -238 -27 -24 c-52 -44 -173 -63 -285
-44 -88 15 -136 44 -139 85 l-2 30 10 -26 c5 -15 22 -32 37 -38 40 -16 129
-31 176 -30 29 1 21 4 -31 10 -80 9 -148 33 -138 49 3 5 1 10 -6 10 -7 0 -10
3 -7 6 3 3 34 -2 69 -12 114 -29 293 -3 319 47 6 10 10 73 10 141 0 139 11
279 40 483 21 158 34 320 21 267 -5 -18 -11 -35 -13 -37 -2 -2 -26 3 -53 11
-28 8 -109 18 -181 21 l-132 6 -11 37 c-6 21 -11 41 -11 46 0 5 53 9 118 9
133 1 242 19 275 46 20 16 20 19 7 33 -31 31 -129 47 -295 48 -96 1 -150 4
-135 9 14 5 93 7 175 5 115 -2 163 -7 205 -22z m-492 -25 c-16 -11 -28 -26
-28 -33 0 -13 28 -30 67 -41 15 -4 27 -22 42 -65 l20 -60 -40 -10 c-22 -6 -46
-13 -53 -16 -9 -4 -17 10 -24 43 -9 41 -10 32 -5 -57 4 -86 3 -103 -8 -93 -9
9 -13 54 -13 164 -1 147 0 151 23 170 13 10 28 19 35 19 6 0 -1 -10 -16 -21z
m472 -1 c95 -29 30 -63 -141 -74 -52 -4 -120 -4 -151 0 -47 6 -57 11 -61 29
-2 12 -8 30 -11 39 -6 13 -1 18 21 21 53 10 298 -1 343 -15z m-430 -27 c15
-29 13 -31 -20 -20 -32 12 -38 24 -17 32 21 9 26 7 37 -12z m102 -139 c15 -41
25 -79 22 -84 -15 -23 -33 0 -57 75 -32 99 -32 96 -9 90 12 -3 27 -30 44 -81z
m118 -42 c19 -5 11 -7 -30 -7 -38 -1 -49 2 -35 8 24 9 33 9 65 -1z m-1116
-445 c9 -133 -10 -74 -28 87 -8 73 -17 183 -20 243 l-5 110 24 -175 c13 -96
26 -215 29 -265z m921 415 c-3 -5 -14 -10 -23 -10 -15 0 -15 2 -2 10 20 13 33
13 25 0z m305 -10 c-19 -13 -30 -13 -30 0 0 6 10 10 23 10 18 0 19 -2 7 -10z
m90 -55 c-11 -14 -10 -14 16 -5 27 10 28 10 13 -5 -9 -9 -25 -18 -35 -19 -10
-2 -18 -11 -18 -20 1 -8 -3 -13 -9 -9 -5 3 -7 1 -4 -4 4 -6 0 -16 -8 -23 -8
-7 -15 -20 -15 -29 0 -11 6 -7 18 12 20 32 37 36 22 5 -11 -22 -10 -22 4 -4 9
10 13 23 10 27 -3 5 2 9 10 9 18 0 21 -16 6 -25 -6 -4 -9 -14 -8 -23 2 -13 -7
-18 -39 -22 -37 -6 -42 -4 -46 17 -2 12 -1 24 2 25 4 2 17 19 29 40 l23 36
-28 6 c-48 10 -67 1 -103 -47 -19 -26 -37 -42 -38 -37 -2 6 2 18 9 26 10 13
10 17 -2 26 -12 8 -12 9 1 5 8 -2 28 7 43 19 30 25 94 33 113 14 8 -8 15 -6
24 5 7 8 15 15 17 15 3 0 0 -7 -7 -15z m-320 -4 c0 -6 -5 -13 -12 -17 -7 -4
-8 -3 -4 4 12 19 -6 14 -31 -10 -13 -12 -26 -18 -30 -14 -5 4 3 16 16 27 24
20 61 26 61 10z m220 -36 c-14 -17 -30 -20 -30 -4 0 5 4 8 9 4 5 -3 12 -1 16
5 3 5 9 10 12 10 3 0 0 -7 -7 -15z m-220 -5 c0 -6 8 -5 20 2 17 11 22 10 29
-1 6 -9 11 -10 15 -2 8 12 46 15 46 4 0 -5 -8 -17 -17 -28 -15 -20 -15 -20
-10 3 5 22 5 23 -12 7 -17 -15 -19 -15 -25 1 -5 13 -9 14 -21 4 -11 -9 -18
-10 -28 -1 -8 6 -17 8 -20 4 -4 -3 -7 -1 -7 5 0 7 7 12 15 12 8 0 15 -5 15
-10z m-70 -21 c96 -21 180 -50 175 -60 -4 -5 3 -9 14 -9 16 0 21 -6 21 -28 0
-15 -6 -34 -12 -42 -11 -12 -10 -12 4 -1 9 7 19 22 21 34 4 18 5 18 6 -5 1
-30 -30 -58 -64 -58 -12 0 -57 9 -101 21 -64 17 -93 20 -154 14 -41 -4 -103
-8 -136 -9 -42 -1 -60 -5 -57 -12 6 -16 52 -24 138 -24 43 0 99 -8 136 -19
255 -77 270 -83 299 -111 27 -26 28 -32 19 -59 -16 -46 -45 -48 -173 -13 -138
39 -218 52 -321 52 -70 0 -78 -2 -64 -15 8 -8 55 -23 104 -34 50 -11 103 -24
118 -30 16 -6 84 -25 150 -41 130 -32 153 -46 142 -90 -8 -32 -6 -31 -56 -36
-40 -5 -95 4 -392 63 -71 14 -130 23 -133 20 -3 -3 5 -8 18 -12 13 -4 25 -12
29 -16 7 -12 229 -77 309 -90 97 -17 130 -33 130 -63 0 -14 -4 -27 -8 -30 -5
-3 -7 9 -5 27 3 35 -2 28 -12 -17 l-6 -29 -77 6 c-42 3 -122 15 -177 27 -124
26 -215 39 -215 29 0 -4 6 -10 13 -13 6 -3 -10 -5 -38 -3 -43 3 -46 3 -22 -6
35 -14 34 -21 -7 -41 -37 -18 -119 -21 -181 -6 -36 8 -38 7 -21 -6 20 -14 20
-14 0 -29 -50 -38 -66 -32 -110 47 -27 49 -29 61 -29 153 1 120 14 151 80 188
50 28 52 28 29 -11 -43 -72 77 77 152 189 47 70 90 132 97 137 23 19 221 71
272 71 28 0 70 -4 95 -10z m290 -26 c-14 -18 -17 -29 -9 -33 7 -5 6 -9 -4 -13
-9 -3 -21 2 -29 11 -11 13 -11 14 1 7 11 -6 13 -4 8 9 -4 10 -7 20 -7 23 0 3
-7 0 -15 -7 -11 -9 -15 -9 -15 -1 0 17 31 26 39 12 6 -9 11 -8 21 4 22 27 32
16 10 -12z m24 -88 c26 -26 -3 -62 -39 -49 -18 7 -20 50 -2 57 20 9 25 8 41
-8z m63 -132 c-4 -3 -7 0 -7 7 0 7 3 10 7 7 3 -4 3 -10 0 -14z m-16 -153 c-6
-99 -8 -110 -10 -54 -1 73 10 207 16 189 1 -6 -1 -66 -6 -135z m-1066 51 c16
-7 13 -9 -17 -15 -53 -10 -91 -46 -124 -118 -26 -57 -29 -73 -29 -173 0 -119
13 -169 62 -233 81 -107 176 -92 243 37 26 50 29 52 23 21 -14 -82 -72 -155
-131 -166 -74 -14 -187 79 -218 179 -38 125 -23 287 36 380 l29 45 -52 -18
c-125 -44 -181 -76 -239 -139 -64 -69 -71 -69 -33 -4 14 23 22 43 16 43 -5 0
-38 -9 -74 -20 -78 -24 -157 -74 -210 -133 -25 -27 -34 -33 -26 -17 21 41 111
125 161 148 25 12 77 29 115 38 37 10 119 39 181 66 102 43 230 87 257 87 6 0
19 -4 30 -8z m482 2 c-4 -3 -10 -3 -14 0 -3 4 0 7 7 7 7 0 10 -3 7 -7z m190
-30 c-4 -3 -10 -3 -14 0 -3 4 0 7 7 7 7 0 10 -3 7 -7z m-1265 -89 c32 -9 58
-20 58 -25 0 -4 -37 -19 -82 -34 -115 -37 -194 -81 -256 -142 -41 -41 -49 -46
-35 -22 47 80 182 171 277 186 55 9 22 21 -59 22 -55 0 -88 -4 -155 -23 -22
-6 -21 -5 5 11 74 42 158 51 247 27z"/>
<path d="M2251 4329 c-30 -5 -69 -18 -85 -27 -29 -17 -31 -23 -30 -70 2 -64
37 -129 84 -156 28 -17 52 -21 115 -21 135 1 176 40 179 168 1 63 -1 71 -24
88 -31 23 -159 33 -239 18z"/>
<path d="M1633 4316 c-38 -17 -48 -47 -39 -112 15 -113 50 -145 166 -152 66
-4 86 -1 124 17 56 27 90 90 91 166 0 48 -1 51 -40 70 -53 26 -252 33 -302 11z"/>
<path d="M1981 4074 c0 -11 3 -14 6 -6 3 7 2 16 -1 19 -3 4 -6 -2 -5 -13z"/>
<path d="M2359 2680 c-10 -6 -52 -16 -95 -24 -44 -8 -65 -15 -47 -15 45 -1
127 18 149 34 22 16 17 19 -7 5z"/>
<path d="M2290 1640 c-11 -7 -11 -10 -2 -10 7 0 10 -4 7 -10 -3 -5 -4 -10 -1
-10 3 0 10 9 16 20 12 22 4 25 -20 10z"/>
<path d="M1760 2360 c0 -7 3 -10 7 -7 3 4 3 10 0 14 -4 3 -7 0 -7 -7z"/>
<path d="M2042 2318 c-17 -17 -15 -43 6 -59 14 -11 15 -11 5 1 -18 20 -16 47
5 59 9 6 12 11 7 11 -6 0 -16 -5 -23 -12z"/>
<path d="M2073 2243 c4 -3 10 -3 14 0 3 4 0 7 -7 7 -7 0 -10 -3 -7 -7z"/>
<path d="M1461 2172 c-13 -24 -10 -167 3 -145 5 9 6 39 2 67 -4 38 -2 58 10
74 8 12 11 22 5 22 -6 0 -15 -8 -20 -18z"/>
<path d="M1818 2093 c7 -3 16 -2 19 1 4 3 -2 6 -13 5 -11 0 -14 -3 -6 -6z"/>
<path d="M2121 2068 c-11 -29 3 -55 34 -70 28 -13 55 3 54 31 0 11 -3 9 -9 -6
-11 -28 -34 -29 -60 -3 -20 20 -18 47 4 62 7 5 7 8 -2 8 -7 0 -16 -10 -21 -22z"/>
<path d="M1456 1930 c8 -43 14 -51 14 -19 0 13 -5 31 -10 39 -7 11 -8 5 -4
-20z"/>
<path d="M1750 1930 c0 -7 3 -10 7 -7 3 4 3 10 0 14 -4 3 -7 0 -7 -7z"/>
<path d="M1790 1920 c0 -7 3 -10 7 -7 3 4 3 10 0 14 -4 3 -7 0 -7 -7z"/>
<path d="M2082 1888 c-24 -24 -6 -69 28 -67 9 0 6 4 -7 9 -27 11 -30 45 -5 59
9 6 12 11 7 11 -6 0 -16 -5 -23 -12z"/>
<path d="M1452 1860 c0 -14 2 -19 5 -12 2 6 2 18 0 25 -3 6 -5 1 -5 -13z"/>
<path d="M2160 1870 c0 -7 3 -10 7 -7 3 4 3 10 0 14 -4 3 -7 0 -7 -7z"/>
<path d="M2146 1833 c-6 -14 -5 -15 5 -6 7 7 10 15 7 18 -3 3 -9 -2 -12 -12z"/>
<path d="M1460 1823 c0 -5 10 -18 23 -29 l22 -19 -20 25 c-11 14 -21 27 -22
29 -2 2 -3 0 -3 -6z"/>
<path d="M2028 1743 c7 -3 16 -2 19 1 4 3 -2 6 -13 5 -11 0 -14 -3 -6 -6z"/>
<path d="M1993 1724 c-3 -8 -2 -19 3 -24 5 -5 9 1 9 16 0 28 -3 30 -12 8z"/>
<path d="M2023 1683 c4 -3 10 -3 14 0 3 4 0 7 -7 7 -7 0 -10 -3 -7 -7z"/>
<path d="M2190 2255 c0 -8 5 -15 10 -15 6 0 10 7 10 15 0 8 -4 15 -10 15 -5 0
-10 -7 -10 -15z"/>
<path d="M2710 3491 c0 -5 45 -67 99 -139 94 -123 121 -163 121 -177 0 -4 -25
-33 -56 -65 l-55 -58 93 -64 93 -63 3 -59 c6 -119 -61 -390 -258 -1036 -125
-412 -165 -565 -180 -695 -11 -98 -13 -199 -5 -207 13 -13 298 52 453 103 l92
31 0 131 c0 147 18 514 29 592 l7 50 22 -115 c12 -63 26 -167 32 -230 5 -63
19 -179 31 -258 l22 -142 31 0 c114 0 596 133 596 165 0 16 -25 186 -45 305
-13 80 -31 211 -39 292 -18 174 -23 196 -75 354 -22 66 -45 154 -51 195 -24
165 -42 242 -86 365 -25 71 -59 180 -75 243 -33 128 -67 197 -107 213 -15 6
-52 23 -82 38 -30 16 -75 35 -100 43 -102 35 -249 90 -354 133 -156 64 -156
65 -156 55z m666 -463 c-4 -51 -18 -158 -32 -238 -27 -156 -86 -410 -91 -393
-2 6 17 116 42 244 25 129 53 289 63 356 9 68 19 123 21 123 2 0 1 -42 -3 -92z
m-129 -665 c-4 -3 -7 0 -7 7 0 7 3 10 7 7 3 -4 3 -10 0 -14z"/>
</g>
</svg>
